<?xml version="1.0" standalone="no"?>
<!DOCTYPE svg PUBLIC "-//W3C//DTD SVG 20010904//EN"
 "http://www.w3.org/TR/2001/REC-SVG-20010904/DTD/svg10.dtd">
<svg version="1.0" xmlns="http://www.w3.org/2000/svg"
 width="300.000000pt" height="223.000000pt" viewBox="0 0 300.000000 223.000000"
 preserveAspectRatio="xMidYMid meet">
<metadata>
Created by potrace 1.10, written by Peter Selinger 2001-2011
</metadata>
<g transform="translate(0.000000,223.000000) scale(0.100000,-0.100000)"
fill="#000000" stroke="none">
<path d="M747 2223 c414 -2 1092 -2 1505 0 414 1 76 2 -752 2 -828 0 -1166 -1
-753 -2z"/>
<path d="M1310 1482 c8 -5 42 -12 76 -15 76 -8 209 -49 294 -92 185 -93 251
-208 185 -322 -32 -54 -88 -84 -170 -91 -83 -6 -165 17 -310 88 -66 32 -136
62 -155 65 -19 4 -39 13 -43 19 -6 7 -7 4 -3 -6 6 -21 -12 -23 -37 -4 -32 24
1 34 83 25 85 -9 148 -29 190 -59 15 -11 56 -33 91 -50 51 -24 77 -30 131 -30
37 0 70 5 73 10 4 6 -16 10 -53 10 -77 0 -123 17 -224 83 -104 68 -133 77
-227 76 -90 -2 -133 -10 -138 -26 -8 -24 55 -72 149 -113 107 -46 221 -109
373 -207 108 -69 166 -91 265 -100 83 -7 145 6 263 57 145 62 227 55 374 -30
87 -50 148 -64 208 -49 64 16 56 27 -17 26 -74 -2 -129 21 -213 89 -121 98
-204 118 -335 79 -46 -14 -94 -25 -107 -25 -14 0 -21 -4 -18 -10 9 -15 75 -12
131 5 59 18 136 18 184 1 34 -13 33 -13 -37 -14 -83 0 -96 -4 -180 -43 -153
-72 -294 -76 -418 -11 -59 31 -222 142 -208 142 6 0 40 -7 75 -16 140 -36 266
0 327 93 l34 52 30 -16 c16 -8 54 -15 83 -15 52 -1 52 -1 31 -19 -36 -30 1
-24 79 13 57 27 80 32 133 31 57 -1 76 -7 189 -64 120 -61 128 -64 198 -64 44
0 78 5 85 12 10 10 -2 12 -54 12 -74 -1 -119 18 -231 94 -119 82 -218 96 -317
47 -52 -26 -143 -36 -181 -21 -21 8 -28 17 -28 36 0 72 -93 181 -206 242 l-59
32 55 -5 c30 -3 66 -1 80 4 20 8 10 10 -50 11 -53 0 -106 10 -180 32 -102 30
-307 54 -270 31z"/>
<path d="M1160 1365 c0 -8 -9 -24 -21 -36 -11 -11 -19 -22 -17 -23 2 -2 57
-11 123 -20 127 -19 321 -67 393 -98 47 -20 62 -22 62 -10 0 9 -147 93 -230
130 -136 62 -310 93 -310 57z m150 -30 c51 -27 37 -38 -37 -30 -38 4 -72 10
-77 15 -30 29 63 41 114 15z"/>
<path d="M235 1128 c0 -91 1 -97 19 -94 21 3 35 26 17 26 -17 0 -13 47 4 54
16 6 47 -43 43 -66 -2 -8 5 -12 17 -10 29 5 29 6 0 47 -29 44 -30 51 -10 59 9
3 15 18 15 40 0 34 0 34 -52 38 l-53 3 0 -97z m85 56 c0 -18 -27 -43 -47 -44
-8 0 -13 12 -13 30 0 27 3 30 30 30 21 0 30 -5 30 -16z"/>
<path d="M969 1183 c-5 -110 14 -174 43 -145 9 9 10 15 2 20 -14 9 -25 80 -13
84 12 4 -4 61 -19 66 -7 2 -13 -8 -13 -25z"/>
<path d="M618 1165 c-8 -8 3 -108 13 -119 5 -6 17 -5 31 1 18 8 26 7 37 -4 10
-11 16 -12 25 -3 8 8 7 13 -2 19 -8 5 -12 25 -11 54 3 48 -3 63 -19 53 -6 -3
-8 -24 -5 -45 4 -32 2 -41 -15 -50 -20 -11 -21 -8 -24 41 -3 46 -15 68 -30 53z"/>
<path d="M377 1153 c-4 -3 -7 -30 -7 -60 l0 -53 45 0 c32 0 45 4 45 14 0 11
-9 13 -37 10 l-38 -5 30 25 c17 14 33 26 38 26 4 0 7 11 7 25 0 22 -4 25 -38
25 -21 0 -42 -3 -45 -7z m63 -19 c0 -8 -32 -33 -42 -34 -5 0 -8 9 -8 20 0 15
7 20 25 20 14 0 25 -3 25 -6z"/>
<path d="M487 1153 c-10 -9 -8 -96 2 -112 7 -11 13 -10 35 4 l26 17 0 -29 c0
-16 -5 -34 -12 -41 -9 -9 -5 -12 18 -12 l29 0 0 90 0 90 -46 0 c-25 0 -49 -3
-52 -7z m63 -43 c0 -19 -7 -33 -19 -40 -29 -15 -31 -13 -31 30 0 36 3 40 25
40 21 0 25 -5 25 -30z"/>
<path d="M750 1101 l0 -61 45 0 c32 0 45 4 45 14 0 11 -9 13 -37 10 l-38 -5
30 25 c17 14 34 26 38 26 5 0 7 10 5 23 -2 18 -10 23 -45 25 l-43 3 0 -60z
m70 33 c0 -8 -32 -33 -42 -34 -5 0 -8 9 -8 20 0 15 7 20 25 20 14 0 25 -3 25
-6z"/>
<path d="M853 1143 c-4 -11 4 -25 25 -43 37 -31 40 -40 12 -40 -11 0 -20 5
-20 12 0 9 -3 9 -11 1 -18 -18 -1 -33 37 -33 53 0 56 26 8 67 -32 27 -35 33
-18 33 11 0 25 -5 32 -12 9 -9 12 -7 12 10 0 19 -6 22 -35 22 -24 0 -38 -5
-42 -17z"/>
<path d="M2510 1110 c0 -6 15 -19 33 -31 23 -15 43 -19 75 -16 66 7 78 27 16
26 -29 -1 -64 5 -82 15 -36 19 -42 20 -42 6z"/>
<path d="M2135 1009 c-33 -11 -78 -36 -100 -55 l-40 -35 35 6 c19 4 69 23 110
42 95 45 155 48 232 10 58 -29 73 -28 37 2 -62 52 -173 64 -274 30z"/>
</g>
</svg>
